<?xml version="1.0" encoding="utf-8"?>
<!-- Generator: Adobe Illustrator 24.3.0, SVG Export Plug-In . SVG Version: 6.00 Build 0)  -->
<svg version="1.1" xmlns="http://www.w3.org/2000/svg" xmlns:xlink="http://www.w3.org/1999/xlink" x="0px" y="0px"
     viewBox="0 0 841.89 595.28" style="enable-background:new 0 0 841.89 595.28;" xml:space="preserve">
<style type="text/css">
	.st0{opacity:0.35;}
	.st1{fill:#FFFFFF;}
</style>
    <g id="Слой_2">
</g>
    <g id="Слой_1">
	<g class="st0">
		<g>
			<path class="st1" d="M213.32,261.35c2.22,0,4.43,0,6.65,0c6.03,0,12.06,0,18.09,0c8.88,0,17.77,0,26.65,0c10.83,0,21.67,0,32.5,0
				c11.91,0,23.82,0,35.72,0c12.02,0,24.04,0,36.06,0c11.17,0,22.34,0,33.5,0c9.44,0,18.88,0,28.32,0c6.81,0,13.62,0,20.43,0
				c3.22,0,6.44,0.06,9.66,0c0.13,0,0.27,0,0.41,0c3.22,0,3.22-5,0-5c-2.22,0-4.43,0-6.65,0c-6.03,0-12.06,0-18.09,0
				c-8.88,0-17.77,0-26.65,0c-10.83,0-21.67,0-32.5,0c-11.91,0-23.82,0-35.72,0c-12.02,0-24.04,0-36.06,0c-11.17,0-22.34,0-33.5,0
				c-9.44,0-18.88,0-28.32,0c-6.81,0-13.62,0-20.43,0c-3.22,0-6.44-0.06-9.66,0c-0.13,0-0.27,0-0.41,0
				C210.11,256.35,210.1,261.35,213.32,261.35L213.32,261.35z"/>
		</g>
	</g>
        <g class="st0">
		<g>
			<path class="st1" d="M213.32,314.35c2.22,0,4.43,0,6.65,0c6.03,0,12.06,0,18.09,0c8.88,0,17.77,0,26.65,0c10.83,0,21.67,0,32.5,0
				c11.91,0,23.82,0,35.72,0c12.02,0,24.04,0,36.06,0c11.17,0,22.34,0,33.5,0c9.44,0,18.88,0,28.32,0c6.81,0,13.62,0,20.43,0
				c3.22,0,6.44,0.06,9.66,0c0.13,0,0.27,0,0.41,0c3.22,0,3.22-5,0-5c-2.22,0-4.43,0-6.65,0c-6.03,0-12.06,0-18.09,0
				c-8.88,0-17.77,0-26.65,0c-10.83,0-21.67,0-32.5,0c-11.91,0-23.82,0-35.72,0c-12.02,0-24.04,0-36.06,0c-11.17,0-22.34,0-33.5,0
				c-9.44,0-18.88,0-28.32,0c-6.81,0-13.62,0-20.43,0c-3.22,0-6.44-0.06-9.66,0c-0.13,0-0.27,0-0.41,0
				C210.11,309.35,210.1,314.35,213.32,314.35L213.32,314.35z"/>
		</g>
	</g>
</g>
</svg>
