<?xml version="1.0" encoding="utf-8"?>
<!-- Generator: Adobe Illustrator 24.3.0, SVG Export Plug-In . SVG Version: 6.00 Build 0)  -->
<svg version="1.1" id="Слой_1" xmlns="http://www.w3.org/2000/svg" xmlns:xlink="http://www.w3.org/1999/xlink" x="0px" y="0px"
	 viewBox="0 0 841.89 595.28" style="enable-background:new 0 0 841.89 595.28;" xml:space="preserve">
<style type="text/css">
	.st0{fill:url(#SVGID_1_);}
	.st1{fill:url(#SVGID_2_);}
	.st2{fill:url(#SVGID_3_);}
</style>
	<g id="Слой_1_1_">

		<linearGradient id="SVGID_1_" gradientUnits="userSpaceOnUse" x1="-14.5233" y1="96.0107" x2="254.9076" y2="181.5946" gradientTransform="matrix(1 0 0 -1 0 598)">
		<stop  offset="0" style="stop-color:#9A7999"/>
			<stop  offset="1" style="stop-color:#32336D"/>
	</linearGradient>
		<path class="st0" d="M-0.6,449.15c45-69.18,90.01-138.37,135.01-207.55c77.94,117.3,155.87,234.6,233.81,351.9
		c-122.94,0.25-245.88,0.5-368.82,0.75C-0.6,545.88-0.6,497.51-0.6,449.15z"/>

		<linearGradient id="SVGID_2_" gradientUnits="userSpaceOnUse" x1="98.4852" y1="51.2242" x2="595.2258" y2="209.0124" gradientTransform="matrix(1 0 0 -1 0 598)">
		<stop  offset="0" style="stop-color:#9A7999"/>
			<stop  offset="1" style="stop-color:#32336D"/>
	</linearGradient>
		<path class="st1" d="M85.88,596.32C192.51,460.81,299.14,325.3,405.76,189.79c119.96,134.82,239.92,269.64,359.88,404.46
		c-112.47,0-224.94,0-337.41,0C314.11,594.93,199.99,595.62,85.88,596.32z"/>

		<linearGradient id="SVGID_3_" gradientUnits="userSpaceOnUse" x1="422.2556" y1="59.5445" x2="776.3214" y2="172.0124" gradientTransform="matrix(1 0 0 -1 0 598)">
		<stop  offset="0" style="stop-color:#9A7999"/>
			<stop  offset="1" style="stop-color:#32336D"/>
	</linearGradient>
		<path class="st2" d="M419.76,594.21c65.69-102.15,131.38-204.3,197.07-306.45c74.82,35.56,149.64,71.12,224.47,106.69
		c0,66.6,0,133.2,0,199.8C700.79,594.23,560.28,594.22,419.76,594.21z"/>
</g>
</svg>
